/* XPM */
static char *_c6d748780774f6faccc380b4e6d5c3cF14xFOtTqrmJbffF[] = {
/* columns rows colors chars-per-pixel */
"64 64 29 1 ",
"  c #28200C",
". c #302410",
"X c #202020",
"o c #282828",
"O c gray19",
"+ c gray22",
"@ c #400000",
"# c #4C0000",
"$ c #580000",
"% c #640000",
"& c #700000",
"* c #7C0000",
"= c #403018",
"- c #543C1C",
"; c #5C4020",
": c #6C4824",
"> c gray25",
", c #484848",
"< c gray33",
"1 c #646464",
"2 c #880000",
"3 c #980000",
"4 c #A40000",
"5 c #A80000",
"6 c #B00000",
"7 c #BC0000",
"8 c #C80000",
"9 c #D40000",
"0 c #E00000",
/* pixels */
"++++++++++++++++++++++++++++++++++++++++++++++++++++++++++++++++",
"<+<,,,,,<,,,,,,<,+,,,,,,,<<<<<<,,,,,,,,,<<<<<<<,,,,+++,,<<,,,,,+",
"+36654322&%#=,,<35554322*&&***223443:,+<3677642*******22333332;,",
",699875322%#@o,<699875332**2222346752o,+69008632222222334566542o",
",69987532*%#@o,<688874332*&&&&*23354*o,<59098532222*&*22334553*o",
",57775322*%#@o,<576653332&%%$$%&2222%o,,478864222*&%%%%*223332%o",
",35444322&$#@o,<35443332*&%####%%&*&$o+,345443222*&%$$%%&*222*$o",
",23333322%#@@o,,34333222*%$#@@@##%%%$o+,233332222*%$$$$$%%&22&#o",
",*222222*%#@.o+<2332222*&%#@@@@@@#$$#o+,*2222****&%$####$$%%&%#o",
",;&&&&&&%#@@ o+,;&&&&&%%$#@@@@@@@@@#.o+,-%%%%%%%%$##########$#@o",
",,ooooooooXXXo+<,oooooXXXXXooXXXXooooo,<+oooooooooooXXXXXooooooo",
"<++++,,,,+++++,+,,,,,,,+++<,,,++,,,,,,<+,<<<<<11<<<,,>+><+<,,,<+",
"765432**&&%%&**;,<,365532*&%%%%%%&22333333333333333*-,><3565432*",
"9888632222&*222%+,<68886322****&&2334556665555444432%+,+69987532",
"888753222*&%***%o,,58886322***&&&223334555444433333*#+,<68886432",
"445533222&%$%%%$o+,46664322***&%%&22223333333322232&#o>,47655332",
"333332222&$#####o+,34443322**&%%%%&&&*2222222222222*$o+,34333322",
"23322222*%$##@@@o,<2333322**&&%%%%%%%&222*22222**22&$X+,23333322",
"*2222222&%##@@@.o,<222222*&&&%%%$$$$%%&&&&****&%&&&%#X><2222222*",
"$%%%%%%%$##@@@@.+,<;&&&&%%%%%$$########$$%%%%$$##$$#.X,+;&&&&&%%",
"oooXoooXXXoooXXo+,+,+OooooooOO++OoooXXXXXoooXXXXooooo+,<,ooooooo",
"<<,++,<+<+,,++++,,<,,,>+>+>+>,,,<+<,>+++>>,,<>++>,,,<,<+<>+><,,,",
"<3554432*&&%%%&*22333333332&,<<366543*&&&&%%&&*22333333333222*;,",
"<699874322****2233345666653*+,<6998742222*&***2334556655543332%o",
"+688863222*****222234555543%o,<7888632222*&&*&222345554443332*$o",
",466643222*&&%&***223333332%o<15766532222&%%%&&**233333333322&$o",
",344432222*&%%%%&&*2222222&$o<<454432222*&%%%%%%&*22332232222*$o",
"<233322222*&%%%%%%&**22*2*%#o,<343322222*%%%%%%%%&&2222222*&*&%o",
",2222*&*2*&%%%%%%%%%%%&**&%#o+<23222****&%%%%%$$%%%&&**2*&%%&%$o",
",;&%%%%%%%%$#########$%%%%$.o+<;*&&%%%%%$##########$$$%%%%$#$$#o",
",,+ooooooooooooooooo+++oooooo,,,ooooooooXXXXXo+++oXXXooooooooooo",
"<<<<<,,+,+++,<11<<<,,,>>++>++><,,,<+<,<,>+>+>,<<,,>+>,,,<+<,,,<+",
"3333332&$#.,+<355543*&&&&&&&&*233333333:,<<245543****&****223333",
"66666532%#@+,+4888753222222**2234556553*+,<488874222222222234555",
"56666532%#.o,<47776433222*****233445543%+<<578863222222222233344",
"44555432%#.o,+3444433322*%%%%&&22333332%+<145554322222*&&*223333",
"3334433*%#.+,<2333333322&%$$%%%*222222*$+<13333332222*%%%%&22222",
"2233332&$@.+,,222232222*%$$$$$%&**2222&#+,<3322322222&%%%%%&**22",
"**22222%#@.+,,*22222222&%$####$%%%**2*%#o,<222222222*%%%%%%%%%**",
"$%%&*&%$#..o,,;%%%%%%&&%#########$%%%%$=o,,;&&&&&&*&%$########$%",
"oooooooooooo,<,oXXXXoo+++oXXXXXooooooooo+,,,oooo++,+ooXXXooooooo",
"<,<+,++,,++++,,+++,,,,,<<,,+++<,,,<+,+,+,,<,<+<,<<1<,,,+<,<,<+<+",
"+3554332*&&&&&&&*23333333333222;+<+355532&%&&%%%&*223333333332*,",
"<58887532222**22233455655544332&+,<698873*&22*&&*2234455655543*o",
",58876433332****222344544333322%o,,688753*&22&%&&*223344554332&o",
",35543333332%%%&*2222333222222*%o+,465432*&**%%%%%**222333322*%o",
"+3333222232&%#$%%&*2*222222222*%o+,343222***&%$$$%%&*22222222*%o",
"<2322222222%####$%%&&**2222222*%X+<3322*****&%$$$$$%%*2222222*%o",
"+2222**222*%######$%%%&*******&%X+<22******&%$$#####$%&***2*&%$o",
"<;&%%%%%&&%###@@@@@###$%%%%%%$##o,<;&%%%%%%%$##########$%%%%%$=o",
"+,oooooooooo+++oXXXXoooXXXXooXXoo,+,ooooooXXXoO+OoXooooXXXoooooo",
"<+<+<,<,,,,<11<,<+<,<,>+++>,<,,+,,<+<,,,,,,,,,<<<,,,,,+OXXO+,,<,",
"555432*&**&%%&&*2;,<,355432&%%%%%%&&2233333332:,+<355432%%%%%%%%",
"7888632222*&&**22*o,,688873****&%*222334555543*+,<6888632*******",
"5677532222*****22&o,,588863****&&***2223344432%O,<5887532**&&*22",
"3334322222*&*****%o,>366532****&&**&*2*222222&#o,<3444332*&%&*22",
"2223222222&&&%%&*%o,>33332****&&&&%%&**2****&%#o,<2322222*&&&&&%",
"222222222*&%%$$%%%o,>2222*****&&%%$$%&&***&*&%#o,,2222222*&&&%%$",
"22*222222*&%####$#o,,22*******&&%$###%%&**&&&%#o+,22*2222*&&&%$#",
"&&*******&%$#####@o,<*******&&&%$#####$%%%%&%%#o+,**&**2*&%%%$##",
"#$%%%%%%%$##@@@@@.o,,;%%%%%%%%%$#@@@@@@###$$$#@X,<;%$$%%%%$###@@",
"ooooooooooooooooooo,<,+OOooooooooooooooXXXXXoXXX+,,ooooooXXXXXoo",
"+<+<+++,,,,,<<+,,,,<<<<<,,,<,,,<,,+,,,>++>++>,>+><,,+<,,,,>+>,,,",
"<<<<<<<<<<<<<<<<<<<<<<<<<<<<<<<<<<<<<<<<<<<<<<<<<<<<<<<<<<<<<<<<"
};
