/* XPM */
static char *_c5f4736fc404ca588d4dfbb0a6b4139JctuL4A00iXP0eUO[] = {
/* columns rows colors chars-per-pixel */
"64 64 16 1 ",
"  c #202020",
". c #282828",
"X c gray19",
"o c gray22",
"O c gray25",
"+ c #484848",
"@ c gray33",
"# c #646464",
"$ c gray44",
"% c #7C7C7C",
"& c gray55",
"* c #989898",
"= c gray66",
"- c #B4B4B4",
"; c #C0C0C0",
": c #D0D0D0",
/* pixels */
"................................................................",
"@@@@@@@@@@+&*============*$ o#&&&*&&&&&&$@O ++++++++++@@@@@@@@@@",
"@@@@@@@@@@+=;;;;;;;;;;;;;=% o%====******&#O o#&&&&&&&%$+++++++++",
"&&&&&&%# @+=;;;;;;;;;;;;-*# o&==********%@o o%=;;---==**&&&&&&&&",
"=====*&# @+=;-===========&@ o%*********&#@o o&-;;;;;;;-=========",
"--===*&# @+=;========****%@ o+&********%@+o o&-;-===============",
"====*&$@ ++=;=**==*******$@ o+$&******&#@OX o&--=***************",
"==***&#+ o+=;=**********&$@ o++$&&&%%%$@OoX.o&--=***************",
"****&#@O .+*-==*****&***&$@  +@+#@@@@@@OoX .o%=-=**&*&&********&",
"&&&%#@+o .+*-==*********&$@o o+oOOoooooo   +++===**&*&&&&&&&&&&&",
"####@OoX .+&===*&&&*****&$@o o+o..     ....+@+*=*&&&&%%$########",
"+++Oo    .+%==**&&&***&&&$@o o++++$%&&&&%#@o@+&&%$####@@@@++++++",
"     ....o@+===*&&&***&&&$@o o+#&*======&$@ @+###@@@++OOoooXXXXX",
".........o@+*==**&***&*&&$@o .o&=;;-===*&#+ ooooooooooo..       ",
"oooooooooo@+&==*****&&**&#@o .@*;;==****&#O o..........ooooooooo",
"@+oooooooo@+%*=*********&#@O .@*;-=*****&@o o+@@@@ +++++++++++++",
"&&&&&&&%#O @+*=*****&&*&&$@O  @*-=*****&%@o o#&*&@+#%&**********",
"======*&#O @+&****&&&&&&%#@O  @*-=*&&&&&$@o o&==& +%=-;---------",
"======*&#O @+$&*&&&&&%%$##@o  @&=*&%####@+o o*-=% +&-;;---------",
"=*****&%@O +@+$%$$$##@@@@+OX  .%&%#@+OOOooX #=-*$ +&-;=====*****",
"=*****&$@o +@+@@@@++OOoo      .##@@O        %==*$ +&===*****&&**",
"******&$@o +@+....            .o@o    ......&-=*$ +&==******&&&*",
"**&&**&#@o o@@+o        +++++++&&&&&&&%#+.o#*-=*# +&==******&&&*",
"&&&&&*&#+o o%****&&%##o+#%****==-;;;--=%@ o%=;=&# +%*=*****&&&&*",
"&***&&%#+o o*=====**%o@+%=;;-----;;;;-*%@ o&--=&# +#&&&&&&&&&&&&",
"&&&&&%#@OX o*=====**$ @+*;;-=========*&#+ o&--*&# +@#########$%%",
"#####@+oXX o*==****&# ++*;-=**********&#O o&--*&@ @ OOOOOOO++@@@",
"++++OO    .o*=*****%# ++*-==****&&&***&#O o&-=*&@ @o         ooO",
"      ...+++*=*****%@ o+*-=***&&&&&***&#O o&-=*&@ @ooooooo...   ",
"+@#%&&&&%#+ *=*****%@O +*--***&&&&&&&*&#O o&-=*&@ @+++@@@@@@@ooo",
"#&*=--===&# *=*****&#O +&--=**&&&&&&**%@O o&==*&@ +&***&&@+++++@",
"%*-;;-===&# *=*****&#+ +%=;=**&&&&&&*&%@o.o&==*&@ +*======**&$o@",
"&=--====*&# *==****&#+ o@=;-=***&&&&*&$@o.o&==*&@ +*=*=====**$o@",
"&=-=*****&# *=*****&#+ .@*;;=***&&&&*&#+o.+&==*&@ +*=*******&#o+",
"&=-=*****&# *==****&#+ .@&;;=***&&&**&#+ .+&==*%@ +*==******&#o+",
"&=-=*****&# *==****&#+  +%=;=**&&&&&&%@O .+%**%#+ +&=*******&#o+",
"&=-=*****&# *==****&#+  +@*-=*&&&&%%$#+o o+#%$#ooo+%&&&&&&%%$@oo",
"&=-==****&# *==****&#+  o@&**&$##@@@+OoX o+@oooo++ @@@@@@@@@@+oo",
"&=-=*****&# &==****&#+  o@+$$#@+O        o+@++@@@@@            o",
"&=-=*****&@ %==****&#+  .++o...  ........o+@@+++++++++oooooooooo",
"&=-=*****%@ $==****&#+  .+++ooooo++++++++++@@%&&&&&&&%%%%%%%$@o@",
"&=-=****&$+ +==**&&&#@. .o@$%%%%%&&&&&&&&&**==----------====&#o@",
"&=-=****&# .+==***&&#@.  o#*=------------;;;::::::::::::;;;-*#.+",
"&===****%@ .+==****&#@o   $=;::::::;::;:::::::;;;;;;;;;;;;-=&@.+",
"%*==**&&$@ o+*=****&#@o   $=;;;;;;;-;;;;;;;;;-=============*$@.o",
"+****&%$#+ o+******&#@o   #=;;================***********=*&$@.o",
"+&*&&%#@@ .o+&****&%#@o   #*;;=****************************&$@.o",
"+####@@@O .o+%&&&&%$#+o   .*;;=*****&***************&&&&**&&#@ o",
"+o   O+Oo o++#####@@@Oo   .&;;=*****&**&&**********&&&&&*&&%#@ o",
"@@@+o  . .o+ooooooooooo   .%==*&&&&&&&*&&&&&&*&&&*&&&*&&&&&%#+ o",
"+++++++...o+oo            .#%%$####$%&&&&&&&&&&&&&&&&&&&&&&%#+ o",
"+$&***&&$##@oo............o@+oo.....@#$$$$$$$$$$$$$$$$$$$$$#@O o",
"+&=-----=**&%##@oooooooooo+@++oooooo.+@@@@@@@@@@@@@@@@@@@@@+O .o",
"+*-;--;;;;-==******&&&&&%%$#@@+++++oo.............           .o+",
"+*--======----------=======****&#+@+ooooooooo...............oo++",
"+*-==******===============----=*$o+@+++ooooooooooooooooooooo+++@",
"+*==*************&********=====&# o@+&***&+++@@@++++++++++++@@@@",
"+&**&&&&&&&&&&&&%%%%&&&&&&&&**&#@ o++*---==*&@@+&*********&&%++@",
"+%&$###########################@OX o+*==-===&$@&==========***# @",
"+#@+OOOOOOOOOOOOOOOOOOOOOOOOOOOoXX .+%&**&&&%#+&=***********&# @",
"+o                                 .+o+o##@@@@+&&&&&&&&&&&&%$@ @",
"@+ooo...............................o@@oo     o###@@@@@@@@@@@O @",
"@@@@++++++++ooooooooooooooooooooooooo@@@@oooooo@@              @",
"oooooooooooooooooooooooooooooooooooooooooooooooooooooooooooooooo"
};
