/* XPM */
static char *_c47345c20714e4782add616fe0a9a74qE3yhTIJIENhJfIO[] = {
/* columns rows colors chars-per-pixel */
"64 64 35 1 ",
"  c #382C14",
". c #202020",
"X c #282828",
"o c #2C2C2C",
"O c gray19",
"+ c #343434",
"@ c gray22",
"# c #403018",
"$ c #483818",
"% c #543C1C",
"& c #404000",
"* c #585400",
"= c #706C00",
"- c #5C4020",
"; c gray25",
": c #484848",
"> c #4C4C4C",
", c gray33",
"< c gray36",
"1 c #646464",
"2 c gray44",
"3 c #7C7C7C",
"4 c #848400",
"5 c #9C9C00",
"6 c #B4AC00",
"7 c #CCC400",
"8 c #E4D800",
"9 c #FCF420",
"0 c #D0FC5C",
"q c #FCF440",
"w c gray55",
"e c #989898",
"r c gray66",
"t c #B4B4B4",
"y c #D0D0D0",
/* pixels */
"XXXXXXXXXXXXXXXXXXXXXXXXXXXXXXXXXXXXXXXXXXXXXXXXXXXXXXXXXXXXXXXX",
",,,,,,,,,,:3qqqqqqqqeeqqqq2.@13wqqqqqqqq7,;.::::::::::,,,,,,,,,,",
",,,,,,,,,,:e2888888rtt28882.@3rre72255552,;.@2555544221:::::::::",
"w3223321.,:q2666666rttr5562.@wrreww3=4442,@.@5788776ww25554422ww",
"r6662w31.,:q0554445errw4452.@2eeewww24=4,>@.@58655522788877763er",
"re666=2<.,:q2544224ww5w2442.@:36wwww3*2=>:+.@58552227355555563we",
"re=655=,.::qr544234ww5w324*.@:1626ww32<=;;+.=4752277734555442263",
"re35=4=;.@:qrw44334334ww34*&@:=42632221,;++X4475227753=554=41242",
"eew4==2@.X:qte4423=3wwww34*&&:*===*,>>:;++.*5*742252522454241332",
"ww3=2:;@.X:7re542wwwwwew34,X&*:222@@;;;+..*74*5=25=2522=442=1232",
"111<>;+O.X:7re5423wweeew3=,X.&*@XX.....XX*74*=4*542252124=2,,111",
":::;@....X:4re24233weeww31,@.&&*&22993w9974*5=*2==<<=,,,=-;:::::",
".....XXXX@,*erw=3353wew351,@.@&229977ery7775**2,,,>:*;;;@++OOOOO",
"XXXXXXXXX@,:ereww543www34<>@.X@2975662ee54*.@@@@@@@@@@@XX.......",
"@@@@@@@@@@,:wrrew4423ww34,>@.X:37556623352=*@XXXXXXXXXX@@@@@@@@@",
"1,@@@@@@@@,:3ere34423ww3=<,;.X:37422663342*4*:,,,,.:::::::::::::",
"ww325554,;.,:we424=423w321,;..:374236522=>2=56664,:,22333322223w",
"rre7775=,;.,:3w=2414423321,;..:374235=12w>@.@6654.:227772888888e",
"rre6555=2;.,:232141==<2111,@..:34221==,,,:@.@5454.:2777255555543",
"rew6555=>;.:,:22<41**:,,,:;O..X2221,*$@@@@O.25442.:2772255555541",
"e626555=2@.:,:,,>&&&&&+@......X11,>;........254=2.:262ww2555554<",
"w526555=2+.:,:XXXX............X,<,....XXXXXX154*2.:263wew25445=2",
"w532545=:+.@,,:@........::::::<2226666622X@1354=2.:163www55*45=>",
"34335==2:@.@w777777<,1@:15777727656665554.@2e5442.:253ww255*25=>",
"www35=2,:+.@77666662<@,:5775656544555454=.@3e54=4.:4523355=*2=*,",
"ww33=<<>;O.@7544444=,.,:5765544444444===*.@wr54*=.:5*,<444=*,,,>",
"111<,>:@OO.@7444444=>.::57675=44=4444===*.@wr54&=.:*2@;****22:::",
":::;;;....X@7444444=2.::57645=24=44=4=2=&.@3r54**.=@........o+@@",
"......XXX:::74=2444=2.@:576=5=24444=4=2*&.@5254*,.==@@@@@@......",
":,<<222111:.7422444=2&.:46655=2454424=2*&.@5254*,.=554=,====&@@@",
"1226666662<.6422=44=2&.:45525=2444=24=2*&.=5254*,.:=5557744::::,",
"1266444441,.4*33244=2&.:24=w432=44=24=2*&*@5254*,.:25=5556664,>,",
"16544==44*,.3wwww44=2&.@,=eeww3244224=22@X@5254*,.:2325544===,>,",
"1654=2244*,.ereew44=2&.X,wtr4242=4224452XX=3e=4*,.:we35=44*21<::",
"1654=2264*:.errew44*2&.X,wtr44=2242254*2.*5we34=&.:erw5==4*<2<::",
"1654=2654*2.errw344*2&..:3rr4=233=265=*$.*:3e3=*&.:wew5=24*12,::",
"145444444*2.errew=4*2&&.:,er=3332245==*#.@:121=&*@:2w35424*<1,;@",
"1w4=4=444*2.wrrew34*2&&.@,3ww324=*****& .@:,@@**:**<<,:::2;:>;@@",
"1ee342444*2.wreeew4*>;&.@,:224****.&=*&..@:,:==*=,,............@",
"1rrw424=4*;.2e5ee34*>:&.X::@XXX..=XX==*&X@:,==*:*4=*::@@@@@@@@@@",
"1rre=24*4*2.2e4ww34*>:*.X:::@@@@@4::&44===44=*222=45552222211,@,",
"1rrew34=4*@.:e43524*>:*&X@,2222226422*45654=52w227777777777221@,",
"1rteew4=4*.X:e=3424*>>**.@62eee27775we77777777777777777777774,X:",
"1rr5w34=*2.X:eew=24*>>*=&.68888888882rr6666666666666666665441,X:",
"1ee5w34=2;.@:erw&24*>:&*=456855555554er255554===4555555554221,X@",
":ww532=*,;.@:eeew34*,>%*==*2e254554543ew5455=212455545554=221,X@",
":3w541,,:.X@:weew3=&,>%*=*&wrr5=55=542w35=54=2333455=555==231,X@",
":114=,,>;.X@:3www22<,:@&*=Xetr5=55=5=252=25=233ww254=575=2231,.@",
":@.=*2:;@.@::11111,,:;+.&*=wtr5=55=4*25=225=2366335==4=5=1231,.@",
",,,4*..X.X@:@;;;;;;@@Oo..&&3re5=44=**1==225=224=235=2=24=1231:.@",
":::5==22XX@:@@............X13242**-><222224=12==124=122=*1231:.@",
":127775222,,@@XXXXXXXXXXXX@,:@*XXXXX,11121=*<1<,<<=*,11<,<11,;.@",
":378888855222222@@@@@@@@@@:,::@@@@@@X:,,,>**:>>>>:**;>>:::>:;.X@",
":3786666666888888888888211221,:::::@@XXXXX&&XXXXXX&&.........X@:",
":2786676645666666666666643eeeeew1:,:@@@@@=*@@XXXXX*&XXXXXXXX@@::",
":w7862766422766w666=46664wrtttre2@:,:::@4=@@@@@@@@=*@@@@@@@@:::,",
":wr86272641276666764576643errrrw1.@,:46662:::,,,=654==*:::::,,,,",
":we262226=127646576427=6423wwew1,.@::64442wew,,57777775=2www3::,",
":332<<<,4*,<4*2224*22*44=,<1111,;@.@:244=3wew2,754555445=weee1.,",
":1,:;;;@*$@@*$@@2*******$@;;;;;@O@.X:<4=223w31:744542424=3eew1.,",
":@..............&&&&&&&&&..........X:@&*:,,,,,:,12542,24=2332,.,",
",:@@@XXXXXXXXXXXXX&&XX&&XXXXXXXXXXXX@,&&@.....@>,>=*2:2=*,,,,;.,",
",,,,::::::::@@@@@@**@@**@@@@@@@@@@@@@,,,,@@@@@@;;@&&...&&......,",
"@@@@@@@@@@@@@@@@@@@@@@@@@@@@@@@@@@@@@@@@@@@@@@@@@@@@@@@@@@@@@@@@"
};
