/* XPM */
static char *e31a8ae2759b449b851218deac558a3eOqdDInD2kyAHWgrF[] = {
/* columns rows colors chars-per-pixel */
"64 64 24 1 ",
"  c black",
". c #00001C",
"X c gray11",
"o c #00002C",
"O c #000034",
"+ c #202020",
"@ c #282828",
"# c #2C2C2C",
"$ c gray22",
"% c #000040",
"& c #00004C",
"* c #000058",
"= c #280040",
"- c #340058",
"; c #000064",
": c #000070",
"> c #00007C",
", c gray33",
"< c #000088",
"1 c #000098",
"2 c #0000A4",
"3 c #0000A8",
"4 c #0000B0",
"5 c #0000BC",
/* pixels */
"$#*:>>>><<<<<<<<<<<<<<>>>:;*$$;:><<<>>>>:;&$$=:<<<>>>>:;=$:<;OX$",
"+#*><<<<<<<<<<>>>>><<<>>::;& +;><<<<<<>:;&o +;<111<<<<<:* ;<;%. ",
"+=;<<<<<<<<<<>:::::>>>:;;;*% +;<<<<<<<>:;&o +>123211211<; ;>>&o ",
"+&:<<<<<<<<<>>::;;;;::;;;*&O +;<<<<<<<::;&o +>234443321<; ;>:*o ",
"+&:<<<<<>><<>:::;;;;;;;;;*&O +;<<<<<<>:;;&o +>134554321<; *;;%. ",
"+&:<<<<<>><<>>::;;;;;;;;;*&O +;<<<<>>::;*%o +>123444211<* &;*O. ",
"+&:<<<1<<><<<>:;;;;;;;;;;*&O +;<<<<>:::;*%. +>122233211<* %&&o. ",
"+*<<<<11<<<<<<:;;;;;;;;;*&&O +;<<<>::::;*%. +<221111111>* oOOo. ",
"+;<<<<11<<<<<>:;;;;;;;;;*&&o +;<<>:::::;*&o +<221<<<11<>&       ",
"+;><<<<<<<<>>:;;;;;;;;;;*&%o +;>>:::>>:;*&O +>221<<<<<<:& o%&O. ",
"+;>><>>>><>:;;;*;;;;**;;;*&o +*::;;::>:;*&O +>2211<<<>>;& %;;*o ",
"+*:>>>::>:;;**&**;*&&&;;;*&o +*;:;;;;;;*&&o +>2211<<>>:;& %;:;O ",
"+*;::;;;;;;**&&&**&&&&***&%o +&;;;;;*;**&&o +>111<<>>:;;% O*;;% ",
"+&*;*&&&**&&&&&&&&&%%%&&&Oo. +O&**&&&&&&&%o +:111<>:;;;&O o%&&O ",
"+oO%%OoO%%OoO%%OOOOoooooo..  +.ooOOoooOOooo +;111<>:;;*&o oOOOo ",
"+                            +              +;111<<<:;*&o       ",
"::;;::;;;;;;;*%++++++++++++++++++++++++++++++;1111<<>;*&O O;<<<:",
"1<<<11<<>>>>::& ++%&*;;;;**&%%%O+++O&;;***&%+;1111<>:;*&O &<3542",
"11111<<>><<>::* +O*;><<<<>;*&&&&o++&;>>:;;*& *<111<>;;&&o ;14554",
"11111<>>>>>:;;& +&;<<111<>;*&&&&o++*:>>;;;*% &>111<:;*&%o >34433",
"1<<11<>>:::;;*% o&><111<>:;*&&&&o +*:;;;;*&% &>11<>:;*&%o <34332",
"1<<<1<<>:;;;*&O O;<1111<:;;*&&&&o +&*&&&&&&O &>11<:;;*&%o <33322",
"1<<<<<<>>;;;*&o %;<1111<:;;****&o +%%ooOOOOo &><<<;;;*&%O <23222",
"1<<<<<<<>:;*&&o O;<111<>;;;;;**&o ++         &><<<:;;*&%o >23233",
"11<<<<<<>:;*&%o o*><<<<>;;;;;;*&o &;;;;&&%O +&:<1<:;;*&%o >23332",
"211<<<<<>:;&%oo %;><<<<<:;;>>:;&o ;<<<>:;&O +&>11<<:;;&%o >23322",
"211<<<<<<:;*&o. &;><<11<>::<<>;*% ;<1<<>;&o +;<111<>:;*&O :24322",
"111<<<1<>;;*&O. &;:<1111<<<<<:;*& *<<<<:;&o +:1111<>:;*&% ;13322",
"11<<<11<:;*&&O. O*:><111<<<<:;;*% ;<1<<:;&O +:111<<>:;*&% ;13321",
"1<<<<11<;*&&%o.  &;:><<<<<<>;;*&O ;<1<>;;&O +:<11<<>:;*&% ;13321",
"<<<<<<<>;*&&%o.  %&*;:::>><>;**&O ;<1<>;*&o +:1111<>:;*&% ;12211",
"<<<<<<>:;***&o. +oO%%&&&&*;;;&&&O *><<:;*%. +>1211<>:;;*% &<211<",
"<<<<<>:;;*;*&O. ++oooooooo%&%OOoo &><<;*&%o +>111<<>>:;;% %>11<<",
"><<<>::;;***&O. +++               &><>;*&%o +>11<<>>>>:;% O:11<<",
">>>>:;;;*&&&&%. ++O&&***&&&&&%Oo++*><:;*&&o +:11<<::>:;*% O:11<<",
">>::;;;;*&&&&O. ++&;::>::;;;;*&o +;<<:;*&&o +:11<>;;;;;*% %:11<<",
":::;;;;;*&&%%O. ++*;:>>>:;;;;;*O +*><:;*&%o +:1<<:;;;**&O O;<<<<",
":;;;;;;**&&%%%o ++&;:>::;;**;;&O +&:<>:;*&o +:<<:;;**&&&O o&><<<",
"*&&&&&&&&&%%%Oo ++&;:>::;*&&*&%o +&:<<>:;&O +;<<:;*&&&&%o o&:>>>",
"OooOOooOOOOOOoo ++%;::;;*&O%&%o. +;><<>:;*% +;<<:;*&&&&%o o&*;;*",
"                ++O&**&&%o.ooo.  +;>>::;;&O +;>>:;*&&&&%o +     ",
"++++++;;;**;*%ooOO+              +;>>;;;*&O +*;;;*&%%&%Oo +oO%O+",
"++;::<111<<1<:**;*&%OOOoo+++++++++*::;;*&&O +&&&%%Oooooo. +o%%O+",
"++>11222212211<<<<>;;**&o +%&%O.++*;;;**&&O ++            +O%Oo+",
"++<2222211222111111<<:;*% +&;;&. +&**&&&&%o ++++++++++++++++++++",
"++>1222211111111111<<>;*% +*>>*o +O%OOOOOoo ++O&&%%*;;;:>>>>:*O+",
"++:122111111111111<<<>;*O +*><;O ++         ++*><:;<1111111<<;O ",
"++:111111111<<1111<<>:;&O +*::*o +&;;;;;;*&O++:1111122111<<<>;O ",
"++:111111<<<<<<11<<>:;;&O +&;*%. +;<<:;;;;&O +:12222211<<<<>;&o ",
"++;<11111<<<<<<<<<>:::;&O +%%Oo. +*>:*&&&&Oo +;<222221<<<<>;*O. ",
"++&>11111<<<>>>>>>::;;;&% ++     +%&&%OOoo.. +*<223331<<<<>;&o. ",
"++=;112321<<>:::>::;**&&O ++++++++           +;11245421<<<>:*o. ",
"++&>123441<<:;;;::;*&&&&O +&***&&;;;****&%o.++:11234311<<<>:*%. ",
"++*<124541<>:;*;;;;*&&&%o +;>>>>><<<>>>:;*%o +>111111<<<<>>;*O. ",
"++&>12342<<>;***;;;*&&&&O +;><<<<111<<>:;*&o +>1111<<>>>>>:;&o. ",
"++%:12221<<:;***;;**&&&&O +*><<<<11<<<<:;&%. +>121<<>:;:>>;*&o. ",
"++&>1211<<<>;;**;;**&&&&O +*><<<<<<<<<<:;&%. +>111<<>:;;;:;&&O. ",
"++*<111<<<<<:;**;;;*&&&&O +*><<<<<><<<<:;&%. +>111<<>:;;;;*&&O. ",
"++;<1<<<>>>>>;;*;;;;&&&&o +;><>>>>::><<:;&%o +:<<<<>::;***&&&Oo ",
"++;<<>>>::;::;;*;;;;&&&&O +;>>:;::;;:>:;*&%o +:<<<>::;;*&&&&&%o ",
"++;<<>:::;;;;;***;;*&&&&O +&::;;;;;;;;;;*&%o +;<<>::;;;*&&&&&%o ",
"++*:>:::;;;;;**********&O +&;;;;;;;;;;****&o++;::::;;;;;*****&O+",
"$$-;;;;;;;;;;**********=#$$=;;;;;;;;;*****=#$$-;;;;;;;;;;*****#@",
",,,,,,,,,,,,,,,,,,,,,,,,,,,,,,,,,,,,,,,,,,,,,,,,,,,,,,,,,,,,,,,,"
};
